<svg width="44" height="44" viewBox="0 0 44 44" fill="none" xmlns="http://www.w3.org/2000/svg">
<path d="M31.167 3.66669H12.8337C7.77366 3.66669 3.66699 7.75502 3.66699 12.7967V25.5934C3.66699 30.635 7.77366 34.7234 12.8337 34.7234H15.5837C16.0787 34.7234 16.7387 35.0534 17.0503 35.4567L19.8003 39.105C21.0103 40.7184 22.9903 40.7184 24.2003 39.105L26.9503 35.4567C27.2987 34.9984 27.8487 34.7234 28.417 34.7234H31.167C36.227 34.7234 40.3337 30.635 40.3337 25.5934V12.7967C40.3337 7.75502 36.227 3.66669 31.167 3.66669ZM14.667 22C13.6403 22 12.8337 21.175 12.8337 20.1667C12.8337 19.1584 13.6587 18.3334 14.667 18.3334C15.6753 18.3334 16.5003 19.1584 16.5003 20.1667C16.5003 21.175 15.6937 22 14.667 22ZM22.0003 22C20.9737 22 20.167 21.175 20.167 20.1667C20.167 19.1584 20.992 18.3334 22.0003 18.3334C23.0087 18.3334 23.8337 19.1584 23.8337 20.1667C23.8337 21.175 23.027 22 22.0003 22ZM29.3337 22C28.307 22 27.5003 21.175 27.5003 20.1667C27.5003 19.1584 28.3253 18.3334 29.3337 18.3334C30.342 18.3334 31.167 19.1584 31.167 20.1667C31.167 21.175 30.3603 22 29.3337 22Z" fill="white"/>
</svg>
