<svg width="44" height="47" viewBox="0 0 44 47" fill="none" xmlns="http://www.w3.org/2000/svg">
<path d="M19.9872 0.130825C17.8906 0.512867 15.8127 1.65899 14.3032 3.28966C12.8589 4.83646 11.8432 6.83053 11.34 9.07619C11.1071 10.1105 11.0512 12.5984 11.2375 13.8284C11.4984 15.5988 12.0668 17.5743 12.9055 19.5963C13.3993 20.8077 13.3807 20.7983 15.5518 20.7517L17.1825 20.7238L17.4061 20.4629C17.5272 20.3231 17.6297 20.1181 17.6297 20.0249C17.6297 19.9318 17.4061 19.4193 17.1266 18.8881C16.465 17.6209 15.822 15.9809 15.4773 14.6391C15.0859 13.1389 15.0114 11.2659 15.2816 9.96141C16.0363 6.30872 18.869 3.8767 22.0838 4.12828C25.3078 4.37055 27.7212 7.08212 28.1499 10.9212C28.3921 13.0364 27.7771 15.5523 26.2769 18.6459C25.6806 19.8852 25.6247 20.0436 25.7178 20.2579C25.9135 20.6772 26.3235 20.7704 27.9262 20.7704C29.6967 20.7704 29.9017 20.7052 30.2092 20.0622C30.9826 18.4222 31.5137 16.9593 31.8864 15.4591C32.9114 11.2473 32.2032 7.25916 29.883 4.16556C27.8517 1.46331 24.9072 -0.0275822 21.6365 0.000371933C21.0961 0.000371933 20.3599 0.0655975 19.9872 0.130825Z" fill="white"/>
<path d="M15.8597 21.8234C15.3379 22.0843 15.3099 22.7365 15.8038 23.0627C16.0926 23.249 16.4281 23.1838 16.6983 22.8949C16.9406 22.634 16.9313 22.3265 16.6797 22.0377C16.4094 21.7488 16.1485 21.6743 15.8597 21.8234Z" fill="white"/>
<path d="M27.0692 21.7954C26.6126 21.9818 26.5194 22.6899 26.9108 22.9974C27.2369 23.2583 27.5537 23.2397 27.8333 22.9602C28.206 22.5874 28.1128 22.0656 27.6283 21.814C27.3953 21.6836 27.3487 21.6836 27.0692 21.7954Z" fill="white"/>
<path d="M14.0986 23.5285C13.8377 23.8547 13.8564 24.1715 14.1359 24.451C14.5086 24.8331 15.0304 24.7306 15.2914 24.246C15.6548 23.5472 14.5832 22.9135 14.0986 23.5285Z" fill="white"/>
<path d="M28.3545 23.5285C28.0936 23.8547 28.1122 24.1715 28.3918 24.451C28.839 24.9076 29.5565 24.6001 29.5565 23.9572C29.5565 23.3142 28.7459 23.0347 28.3545 23.5285Z" fill="white"/>
<path d="M12.5519 25.0101C12.2724 25.2896 12.2537 25.6065 12.5147 25.9326C12.8967 26.4171 13.7167 26.1562 13.7353 25.5412C13.754 24.8796 13.0085 24.5442 12.5519 25.0101Z" fill="white"/>
<path d="M29.9767 25.0101C29.6972 25.2897 29.6786 25.6065 29.9395 25.9326C30.1817 26.2401 30.6756 26.2681 30.9551 25.9885C31.2347 25.709 31.2067 25.2151 30.8992 24.9728C30.5731 24.7119 30.2563 24.7306 29.9767 25.0101Z" fill="white"/>
<path d="M11.2282 26.3612C10.8182 26.529 10.6971 27.116 11.0046 27.4887C11.3959 27.9733 12.2252 27.6471 12.2252 27.0135C12.2252 26.5196 11.6941 26.1656 11.2282 26.3612Z" fill="white"/>
<path d="M31.5046 26.5383C31.3555 26.6874 31.2344 26.9017 31.2344 27.0135C31.2344 27.2744 31.7189 27.759 31.9798 27.759C32.2407 27.759 32.7253 27.2744 32.7253 27.0135C32.7253 26.7526 32.2407 26.2681 31.9798 26.2681C31.868 26.2681 31.6537 26.3892 31.5046 26.5383Z" fill="white"/>
<path d="M20.742 27.0601C19.0554 27.4235 17.6018 28.7932 17.1639 30.4425C16.9868 31.1134 17.0334 32.4087 17.257 33.0889C18.1795 35.8657 21.385 37.1422 23.9754 35.7632C24.637 35.4091 25.5315 34.4959 25.867 33.8343C26.3701 32.8373 26.5285 31.5141 26.2583 30.5078C25.8017 28.7932 24.3854 27.4142 22.6895 27.0601C21.9254 26.8924 21.4875 26.8924 20.742 27.0601Z" fill="white"/>
<path d="M7.65983 28.8492C7.1287 28.9424 6.08507 29.5387 5.60053 30.0326C3.08465 32.5391 4.4544 36.7509 7.97664 37.3659C10.1105 37.7293 12.263 36.3036 12.8314 34.1418C13.0084 33.4523 13.0084 32.8187 12.8314 32.0546C12.468 30.5451 11.2752 29.3151 9.76571 28.9144C9.31845 28.7933 8.17232 28.756 7.65983 28.8492Z" fill="white"/>
<path d="M34.1038 28.961C33.3677 29.2033 32.8086 29.5481 32.2775 30.0885C29.8361 32.5671 31.2432 36.7603 34.7188 37.3659C36.014 37.5896 37.449 37.1143 38.4181 36.1453C40.5519 34.0207 39.9649 30.5358 37.244 29.194C36.5917 28.8772 36.4706 28.8399 35.5854 28.8119C34.8399 28.7933 34.5231 28.8212 34.1038 28.961Z" fill="white"/>
<path d="M18.4125 36.9932C16.8657 37.2261 15.5798 37.897 14.4057 39.0711C13.6975 39.7886 13.4925 40.0682 13.1291 40.8043C12.4768 42.1368 12.393 42.5281 12.3464 44.6433L12.2998 46.479L12.5421 46.712L12.775 46.9542H21.7763C30.5539 46.9542 30.7683 46.9542 30.9453 46.7772C31.2155 46.507 31.2714 46.0504 31.2062 44.4383C31.1317 42.7611 30.9546 41.9131 30.4421 40.8788C29.5289 39.0432 27.8331 37.6734 25.8483 37.1609C24.991 36.9373 23.7797 36.8814 23.5747 37.0491C23.5001 37.1143 23.0715 37.8877 22.6149 38.7636L21.8043 40.357L21.3849 39.5836C21.152 39.155 20.7886 38.4468 20.5649 37.9995C20.3413 37.5616 20.0897 37.1516 20.0152 37.0771C19.8195 36.9186 19.13 36.8814 18.4125 36.9932Z" fill="white"/>
<path d="M5.00381 38.0089C4.11859 38.2418 3.71792 38.4189 2.98179 38.9034C2.09657 39.4904 1.23931 40.4502 0.773401 41.382C0.204998 42.5375 0.0931809 43.0406 0.0465904 44.8763L0 46.479L0.232952 46.712L0.475222 46.9542H5.73994H11.014L10.9394 46.6467C10.9022 46.4883 10.8742 45.4913 10.8742 44.4383C10.8835 42.7331 10.9022 42.4443 11.0885 41.7827C11.3681 40.795 11.9365 39.6488 12.5049 38.8941C12.7658 38.5493 12.9521 38.2418 12.9242 38.1952C12.7658 37.9343 10.6413 37.7107 10.2592 37.9157C10.1567 37.9716 9.76535 38.6425 9.38331 39.4066C9.00127 40.18 8.66582 40.8043 8.63787 40.8043C8.60991 40.8043 8.2931 40.2079 7.92969 39.4718C7.56629 38.745 7.20288 38.0741 7.11902 37.9809C6.92334 37.7666 5.87971 37.7759 5.00381 38.0089Z" fill="white"/>
<path d="M31.9704 37.9157C31.5511 38.0182 30.582 38.3816 30.582 38.4375C30.582 38.4654 30.7404 38.6798 30.9361 38.9314C31.4486 39.5743 32.0263 40.7297 32.3152 41.6895C32.5668 42.5002 32.5761 42.612 32.5761 44.7365L32.5854 46.9542H38.0645H43.5435L43.7671 46.7213C43.9908 46.507 44.0001 46.451 44.0001 45.1931C44.0001 43.1618 43.7205 42.0529 42.8912 40.7857C41.7731 39.0711 39.9001 37.9623 37.934 37.8411C37.4308 37.8132 37.0674 37.8411 36.937 37.9064C36.8251 37.9623 36.4524 38.5959 36.0238 39.4252L35.3156 40.8416L34.5888 39.4159C34.1881 38.6332 33.8061 37.953 33.7409 37.9064C33.5825 37.8039 32.4177 37.8132 31.9704 37.9157Z" fill="white"/>
</svg>
