<svg width="87" height="87" viewBox="0 0 87 87" fill="none" xmlns="http://www.w3.org/2000/svg">
<path d="M72.5 36.25C72.5 58 43.5 79.75 43.5 79.75C43.5 79.75 14.5 58 14.5 36.25C14.5 28.5587 17.5553 21.1825 22.9939 15.7439C28.4325 10.3053 35.8087 7.25 43.5 7.25C51.1913 7.25 58.5675 10.3053 64.0061 15.7439C69.4447 21.1825 72.5 28.5587 72.5 36.25Z" fill="white" fill-opacity="0.1"/>
<path d="M43.5 47.125C49.5061 47.125 54.375 42.2561 54.375 36.25C54.375 30.2439 49.5061 25.375 43.5 25.375C37.4939 25.375 32.625 30.2439 32.625 36.25C32.625 42.2561 37.4939 47.125 43.5 47.125Z" fill="#4B56C0" fill-opacity="0.1" stroke="#5964C8" stroke-opacity="0.1" stroke-width="2" stroke-linecap="round" stroke-linejoin="round"/>
</svg>
