<svg width="44" height="45" viewBox="0 0 44 45" fill="none" xmlns="http://www.w3.org/2000/svg">
<path d="M30.3299 0.229397C30.1831 0.367022 30.1006 0.559698 30.1006 0.734024C30.1006 0.908348 30.1831 1.10102 30.3299 1.23865C30.5134 1.43133 30.6419 1.46803 31.0731 1.46803C32.5228 1.46803 34.6606 2.00018 36.0827 2.71583C40.2206 4.79856 42.7621 9.12 42.5511 13.7167C42.3034 19.1575 38.5049 23.589 33.1008 24.7451C32.0365 24.9744 29.6143 24.9744 28.5408 24.7359C26.2195 24.2313 24.1368 23.1119 22.5403 21.5063C21.9348 20.9099 20.7879 19.4603 20.8613 19.396C20.8797 19.3777 21.1824 19.4419 21.5311 19.5428C21.8797 19.6438 22.2559 19.7263 22.3752 19.7263C22.678 19.7263 23.0358 19.3318 23.0358 19.0107C23.0358 18.4877 22.834 18.3776 21.0173 17.8913C20.0906 17.6344 19.274 17.4326 19.2098 17.4326C19.1548 17.4326 18.9896 17.5243 18.8612 17.6344C18.6685 17.8087 18.54 18.1482 18.173 19.5428C17.9253 20.4787 17.7418 21.3136 17.7693 21.4054C17.8611 21.6806 18.1914 21.9283 18.4942 21.9283C18.8979 21.9283 19.1364 21.6347 19.3199 20.9191C19.4025 20.5888 19.5034 20.2952 19.5401 20.2493C19.5768 20.2126 19.8062 20.4787 20.0539 20.8457C20.7237 21.8458 22.3568 23.433 23.4579 24.1579C24.9717 25.1671 26.6416 25.8552 28.4215 26.2131C29.6418 26.4608 32.22 26.4333 33.4678 26.1672C36.1102 25.5983 38.2572 24.4239 40.1564 22.5339C42.074 20.6071 43.3034 18.3042 43.8356 15.6251C44.0558 14.469 44.0558 12.0927 43.8264 10.8724C42.7713 5.24814 38.3581 0.981749 32.7338 0.146822C32.2017 0.0642471 31.4952 2.09808e-05 31.1649 2.09808e-05C30.6327 2.09808e-05 30.5226 0.0275459 30.3299 0.229397Z" fill="white"/>
<path d="M29.5324 5.82615C26.523 6.39501 24.0641 8.63371 23.2108 11.5789C22.9631 12.4505 22.8713 14.258 23.0365 15.1755C23.5503 18.084 25.6972 20.5429 28.5415 21.4512C32.4133 22.699 36.5972 20.8457 38.3129 17.1206C39.6708 14.1754 39.0928 10.6339 36.8632 8.28506C35.7347 7.10148 34.4777 6.34913 32.9914 5.96378C32.028 5.70688 30.4682 5.65183 29.5324 5.82615ZM31.3857 7.70703C31.5784 7.80796 31.7527 8.25753 31.7527 8.66124C31.7527 8.92731 31.7894 8.96401 32.2298 9.11999C33.1106 9.43194 34.1382 10.744 34.1382 11.5697C34.1382 11.8358 34.0832 11.9642 33.8997 12.1019C33.4134 12.478 32.9638 12.2762 32.6335 11.533C32.395 11.0009 32.028 10.6155 31.6151 10.4595C30.9912 10.221 30.0462 10.4228 29.6241 10.8908C29.3856 11.1477 29.1837 11.6982 29.1837 12.0652C29.1837 12.6615 29.5507 12.8542 31.1105 13.0285C33.2941 13.2854 34.1015 13.8818 34.2116 15.3131C34.3034 16.671 33.4134 18.0381 32.1473 18.4785C31.817 18.5886 31.7986 18.6161 31.7344 19.0932C31.661 19.708 31.3307 20.0474 30.8995 19.9649C30.4315 19.8731 30.2847 19.6713 30.2847 19.1116C30.2847 18.7262 30.248 18.607 30.1288 18.5611C29.6058 18.3959 29.092 18.084 28.7433 17.7353C28.3213 17.3041 27.8075 16.3407 27.8075 15.9646C27.8075 15.6343 28.0369 15.3498 28.358 15.2764C28.8167 15.1755 28.9819 15.2948 29.303 15.937C29.4773 16.2949 29.7434 16.6527 29.9453 16.827C30.248 17.0656 30.3857 17.1114 30.9086 17.139C31.6243 17.1757 32.0005 17.0105 32.4317 16.4875C32.6335 16.2306 32.7069 16.0288 32.7436 15.6434C32.8079 14.8177 32.6335 14.7168 30.5875 14.4507C28.9177 14.2397 28.1286 13.7534 27.835 12.7625C27.3854 11.1935 28.4039 9.49616 30.1288 8.95484C30.248 8.91814 30.2847 8.79886 30.2847 8.44104C30.2847 8.10156 30.3306 7.93641 30.4682 7.79878C30.6609 7.60611 31.1013 7.56023 31.3857 7.70703Z" fill="white"/>
<path d="M15.256 26.525C14.5404 26.6626 12.6411 27.3508 11.6044 27.8462L10.5859 28.3233L10.797 28.9564L11.008 29.5895L11.0172 34.8009C11.0172 39.7187 11.0263 40.0123 11.1823 39.9664C11.5952 39.8471 12.8889 39.7003 13.632 39.6912C14.4303 39.682 14.4853 39.7003 15.1276 40.0398C15.4946 40.2417 16.5956 40.9573 17.559 41.6271C20.5133 43.7006 22.0088 44.2787 23.4952 43.9392C24.8348 43.6364 29.5048 41.4069 34.1657 38.8562C37.2853 37.1497 42.0104 34.443 42.3866 34.1403C42.827 33.7916 43.2215 33.0484 43.2857 32.4521C43.4417 30.9474 42.3407 29.7363 40.7901 29.7179C40.1937 29.7179 39.7992 29.828 35.2759 31.3511L30.3948 32.9842L30.3489 33.5622C30.2113 35.2871 28.4864 36.6084 26.8441 36.2414C26.2752 36.1221 21.44 33.3787 21.229 33.0668C20.9537 32.6356 21.3115 31.9933 21.8253 31.9933C21.9997 31.9933 22.9447 32.4888 24.5136 33.3971C26.5688 34.5898 27.0092 34.81 27.3946 34.8376C27.7708 34.8743 27.9084 34.8376 28.1745 34.6632C29.0461 34.0669 29.1654 32.9934 28.4314 32.3328C28.2203 32.1401 25.7247 30.6354 23.4952 29.3693C21.9538 28.4885 19.7977 27.4333 18.7058 27.0296C17.2011 26.4699 16.2286 26.3323 15.256 26.525Z" fill="white"/>
<path d="M1.47489 28.0113C1.02531 28.1581 0.254607 28.9472 0.116982 29.4151C-0.0389939 29.9472 -0.0389939 40.5077 0.116982 41.0307C0.172032 41.2325 0.401407 41.5995 0.621608 41.8381C1.26386 42.5446 1.39231 42.5721 4.75954 42.5721C6.6863 42.5721 7.76895 42.5354 7.99833 42.462C8.50295 42.3152 9.08098 41.7922 9.32871 41.2509L9.54891 40.783V35.2871C9.54891 31.3052 9.52138 29.6903 9.43881 29.4334C9.38376 29.2316 9.15438 28.8646 8.93418 28.626C8.29193 27.9104 8.17265 27.892 4.74119 27.9012C2.87866 27.9104 1.67674 27.9471 1.47489 28.0113ZM4.18152 38.3974C4.64027 38.847 4.31914 39.6361 3.67689 39.6361C3.30072 39.6361 2.94289 39.2782 2.94289 38.9021C2.94289 38.5259 3.30072 38.1681 3.67689 38.1681C3.85122 38.1681 4.04389 38.2506 4.18152 38.3974Z" fill="white"/>
</svg>
