<svg width="44" height="37" viewBox="0 0 44 37" fill="none" xmlns="http://www.w3.org/2000/svg">
<path d="M20.3407 0.0233841C20.2041 0.0429039 19.7649 0.111229 19.3647 0.169788C16.9441 0.511406 14.4454 1.49721 12.181 3.00031C10.7072 3.98611 8.64774 6.04557 7.65217 7.52915C6.84206 8.75896 6.06122 10.2914 5.60248 11.57C5.29015 12.4386 5.28039 12.4582 4.96806 12.4582C4.43123 12.4582 3.40639 12.8291 2.78172 13.2488C1.58119 14.0491 0.673469 15.4058 0.214729 17.0944C0.0390417 17.7581 0 18.1387 0 19.5833C0 21.4182 0.0878438 21.9941 0.595386 23.341C1.20053 24.9613 2.43035 26.4839 3.59184 27.05C4.38243 27.4404 5.44632 27.499 6.56877 27.2062C8.02307 26.845 8.53061 26.3961 8.53061 25.4688C8.53061 25.2443 8.2378 23.1654 7.88642 20.8326C7.18367 16.1867 7.17391 16.0402 7.57409 14.2248C7.98403 12.2825 8.96983 10.1059 10.1313 8.554C10.9512 7.46083 12.669 5.81132 13.7036 5.12809C16.2609 3.42977 18.9938 2.60014 22 2.60014C25.8749 2.60014 29.3789 4.0154 32.1899 6.69951C34.386 8.80777 35.8012 11.326 36.4259 14.2248C36.8066 15.9622 36.7968 16.3038 36.299 19.5833L35.85 22.5602L35.3132 23.6729C33.2635 27.948 29.6131 30.798 24.8793 31.8424C24.3035 31.9693 23.4445 32.0278 21.5608 32.0669C19.9113 32.1059 18.9547 32.1645 18.8279 32.2426C18.5253 32.4182 18.1154 32.877 18.008 33.1796C17.8518 33.57 17.8713 35.0438 18.0373 35.4245C18.2032 35.8441 18.7986 36.3517 19.189 36.42C19.3647 36.4493 20.7507 36.4688 22.2635 36.4493L25.0062 36.42L25.3869 36.1174C25.8554 35.7368 26.0994 35.2683 26.0994 34.7119V34.2727L27.3975 33.853C30.0426 32.9941 32.1801 31.6764 34.2103 29.6463C34.9326 28.9142 35.7427 28.026 35.9965 27.6552C36.4747 26.9817 36.6016 26.9134 37.0603 27.089C37.197 27.1476 37.646 27.255 38.0559 27.3428C39.4321 27.6259 40.5155 27.2452 41.6575 26.1032C42.4286 25.3322 43.0044 24.4147 43.4046 23.341C43.9122 21.9941 44 21.4182 44 19.5833C43.9902 17.5726 43.8536 16.8796 43.1313 15.4156C42.2919 13.7173 41.1304 12.8095 39.4419 12.5362L38.6806 12.4094L38.3975 11.5797C37.7826 9.81309 36.6602 7.82196 35.4694 6.3579C34.6593 5.36234 33.1074 3.91779 32.0532 3.15648C30.9503 2.37564 28.7542 1.26296 27.4854 0.843258C25.748 0.277153 24.3815 0.0526657 22.3904 0.0136223C21.3949 -0.00589752 20.4774 -0.00589752 20.3407 0.0233841Z" fill="white"/>
<path d="M20.0484 5.47943C15.6269 6.2017 11.9472 9.32504 10.5905 13.5025C10.1415 14.8885 10.0439 15.5912 10.0439 17.3383C10.0439 18.3144 10.0927 19.2123 10.1806 19.632C10.5808 21.6817 11.6642 23.9169 12.8549 25.2248L13.2454 25.6347L12.8452 27.4404C12.5329 28.8947 12.4743 29.3144 12.5426 29.5877C12.6695 30.0367 13.0794 30.349 13.4601 30.2904C13.626 30.2611 14.5045 29.8219 15.4219 29.3144L17.0715 28.3774L18.0768 28.719C23.8061 30.632 30.0333 28.1431 32.6979 22.8823C33.5275 21.223 33.8984 19.7882 33.9765 17.8654C34.1229 14.4688 33.0005 11.4235 30.7361 9.05174C29.721 7.98786 28.6473 7.1875 27.4273 6.60188C26.2951 6.05529 25.7973 5.8796 24.6358 5.61607C23.5329 5.3623 21.1904 5.28422 20.0484 5.47943ZM16.9055 15.3472C19.0138 16.3916 18.2622 19.5832 15.9002 19.5832C13.5089 19.5832 12.7573 16.4111 14.8851 15.3472C15.5781 15.0056 16.2223 15.0056 16.9055 15.3472ZM22.6935 15.1911C22.8789 15.2399 23.2303 15.4546 23.4645 15.6498C25.0457 17.0065 24.0892 19.5832 22.0005 19.5832C20.7414 19.5832 19.7556 18.5974 19.7556 17.3383C19.7556 15.806 21.1806 14.7714 22.6935 15.1911ZM29.0963 15.3277C30.8434 16.1476 30.7556 18.695 28.9597 19.4564C28.1398 19.7882 26.949 19.4954 26.3829 18.8122C24.831 16.9382 26.8904 14.3029 29.0963 15.3277Z" fill="white"/>
</svg>
